<svg xmlns="http://www.w3.org/2000/svg" viewBox="0 0 55 55" width="55" height="55">
	<style>
		tspan { white-space:pre }
		.shp0 { fill: #666d89 } 
	</style>
	<path id="bubble" class="shp0" d="M27 18C21.04 18 16 21.21 16 25C16 25.28 16.22 25.5 16.5 25.5C16.78 25.5 17 25.28 17 25C17 21.8 21.67 19 27 19C27.28 19 27.5 18.78 27.5 18.5C27.5 18.22 27.28 18 27 18ZM27 13C18.16 13 11 18.37 11 25C11 29.13 13.78 32.77 18.01 34.93C18.01 34.95 18 34.97 18 35C18 36.79 16.66 38.72 16.07 39.74C16.07 39.74 16.07 39.74 16.07 39.74C16.03 39.85 16 39.97 16 40.09C16 40.59 16.41 41 16.91 41C17 41 17.17 40.97 17.16 40.99C20.29 40.48 23.23 37.6 23.91 36.77C24.91 36.92 25.94 37 27 37C35.84 37 43 31.63 43 25C43 18.37 35.84 13 27 13ZM27 35C26.08 35 25.14 34.93 24.2 34.79C24.11 34.78 24.01 34.77 23.91 34.77C23.32 34.77 22.75 35.04 22.37 35.5C21.94 36.02 20.72 37.19 19.28 38.04C19.67 37.15 19.98 36.14 20 35.11C20 35.05 20.01 34.98 20.01 34.93C20.01 34.17 19.59 33.49 18.92 33.14C15.21 31.25 13 28.21 13 25C13 19.49 19.28 15 27 15C34.72 15 41 19.49 41 25C41 30.51 34.72 35 27 35Z" />
</svg>