<svg xmlns="http://www.w3.org/2000/svg" viewBox="0 0 55 55" width="55" height="55">
	<style>
		tspan { white-space:pre }
		.shp0 { fill: #666d89 } 
	</style>
	<path id="bulb" class="shp0" d="M28 11C21.92 11 17 15.92 17 22C17 26.03 20.69 30.3 22.03 34.05C24.03 39.65 23.81 43 28 43C32.25 43 31.96 39.67 33.97 34.08C35.32 30.32 39 26 39 22C39 15.92 34.08 11 28 11ZM30.59 38.18L25.63 38.8C25.46 38.28 25.27 37.68 25.04 36.9C25.03 36.89 25.03 36.88 25.03 36.87L31.22 36.1C31.13 36.39 31.03 36.7 30.95 36.98C30.82 37.43 30.7 37.82 30.59 38.18ZM24.74 35.91C24.55 35.31 24.35 34.67 24.12 34L31.89 34C31.76 34.36 31.64 34.72 31.54 35.06L24.74 35.91ZM28 41C26.99 41 26.52 40.88 26 39.75L30.24 39.22C29.63 40.87 29.18 41 28 41ZM32.67 32L23.34 32C22.84 30.92 22.24 29.84 21.65 28.78C20.35 26.45 19 24.03 19 22C19 17.04 23.04 13 28 13C32.96 13 37 17.04 37 22C37 24.02 35.65 26.45 34.34 28.8C33.76 29.85 33.17 30.93 32.67 32ZM28 16C24.69 16 22 18.69 22 22C22 22.28 22.22 22.5 22.5 22.5C22.78 22.5 23 22.28 23 22C23 19.24 25.24 17 28 17C28.28 17 28.5 16.78 28.5 16.5C28.5 16.22 28.28 16 28 16Z" />
</svg>