<svg xmlns="http://www.w3.org/2000/svg" viewBox="0 0 55 55" width="55" height="55">
	<style>
		tspan { white-space:pre }
		.shp0 { fill: #666d89 } 
	</style>
	<path id="heart" class="shp0" d="M41.19 16.79C37.56 13.2 31.76 13.13 28 16.5C24.24 13.13 18.44 13.2 14.81 16.79C11.07 20.49 11.07 26.49 14.81 30.19C15.88 31.25 25.86 41.12 25.86 41.12C27.04 42.29 28.96 42.29 30.14 41.12C30.14 41.12 41.07 30.31 41.19 30.19C44.93 26.49 44.93 20.49 41.19 16.79ZM39.77 28.78L28.71 39.71C28.32 40.1 27.68 40.1 27.29 39.71L16.24 28.78C13.28 25.86 13.28 21.12 16.24 18.2C19.08 15.39 23.65 15.29 26.64 17.98L28 19.2L29.36 17.98C32.35 15.29 36.92 15.39 39.77 18.2C42.72 21.12 42.72 25.86 39.77 28.78ZM21.25 19.03C21.25 19.03 21.25 19.03 21.25 19.03C18.9 19.03 17 20.93 17 23.27L17 23.27C17 23.55 17.23 23.77 17.5 23.77C17.78 23.77 18 23.55 18 23.27L18 23.27C18 21.48 19.46 20.03 21.25 20.03L21.25 20.03C21.53 20.03 21.75 19.8 21.75 19.53C21.75 19.25 21.53 19.03 21.25 19.03Z" />
</svg>