<svg xmlns="http://www.w3.org/2000/svg" viewBox="0 0 55 55" width="55" height="55">
	<style>
		tspan { white-space:pre }
		.shp0 { fill: #666d89 } 
	</style>
	<path id="pen" class="shp0" d="M40.4 13.58C38.75 11.94 36.59 11 34.45 11C32.65 11 30.99 11.67 29.78 12.88L24.91 17.78C24.9 17.79 24.88 17.8 24.87 17.82C24.86 17.83 24.85 17.84 24.85 17.85L24.85 17.85L14.52 28.26C14.04 28.73 13.7 29.32 13.51 29.96L11.16 38.47C11.15 38.49 11 39.16 11 39.5C11 41.43 12.57 43 14.51 43C14.89 43 15.64 42.82 15.66 42.81L24.14 40.58C24.78 40.39 25.37 40.04 25.84 39.57L41.11 24.19C43.88 21.41 43.57 16.75 40.4 13.58ZM27.01 34.8C26.93 33.89 26.68 33.01 26.3 32.17L35.75 22.71C36.33 24.54 36.03 26.45 34.76 27.72C34.76 27.73 34.75 27.73 34.74 27.74L34.75 27.75L27.02 35.54C27.03 35.29 27.04 35.05 27.01 34.8ZM25.79 31.26C25.42 30.64 25 30.05 24.47 29.53C23.86 28.92 23.16 28.44 22.43 28.04L31.96 18.5C32.71 18.84 33.43 19.31 34.06 19.94C34.6 20.48 35.02 21.08 35.34 21.71L25.79 31.26ZM21.49 27.56C20.56 27.19 19.59 26.98 18.62 26.96L26.32 19.2C27.5 18.05 29.22 17.72 30.91 18.14L21.49 27.56ZM15.17 40.87C15.06 40.9 14.72 40.98 14.49 41C13.67 40.99 13 40.32 13 39.5C13.01 39.33 13.08 39.04 13.1 38.94L14.15 35.12C15.3 35.09 16.53 35.54 17.49 36.51C18.48 37.49 18.94 38.74 18.89 39.9L15.17 40.87ZM19.87 39.64C19.85 38.3 19.3 36.9 18.2 35.8C17.16 34.76 15.8 34.15 14.44 34.1L15.43 30.49C15.51 30.25 15.65 30.02 15.82 29.81C17.83 28.37 20.91 28.8 23.06 30.94C25.32 33.21 25.68 36.53 23.93 38.51C23.81 38.57 23.7 38.63 23.57 38.67L19.87 39.64ZM39.69 22.77L38.01 24.47C38.01 24.24 38.04 24.03 38.01 23.8C37.84 21.86 36.94 19.99 35.47 18.53C33.84 16.9 31.68 15.96 29.54 15.96L31.2 14.29C32.03 13.46 33.18 13 34.45 13C36.06 13 37.71 13.73 38.98 15C40.18 16.19 40.89 17.67 40.99 19.16C41.08 20.56 40.62 21.84 39.69 22.77Z" />
</svg>