<svg xmlns="http://www.w3.org/2000/svg" viewBox="0 0 55 55" width="55" height="55">
	<style>
		tspan { white-space:pre }
		.shp0 { fill: #666d89 } 
	</style>
	<path id="phone" class="shp0" d="M35 11L19 11C17.34 11 16 12.34 16 14L16 40C16 41.66 17.34 43 19 43L35 43C36.66 43 38 41.66 38 40L38 14C38 12.34 36.66 11 35 11ZM36 40C36 40.55 35.55 41 35 41L19 41C18.45 41 18 40.55 18 40L18 38L36 38L36 40ZM36 37L18 37L18 17L36 17L36 37ZM36 16L18 16L18 14C18 13.45 18.45 13 19 13L35 13C35.55 13 36 13.45 36 14L36 16ZM29 14.5C29 14.78 28.78 15 28.5 15L25.5 15C25.22 15 25 14.78 25 14.5L25 14.5C25 14.22 25.22 14 25.5 14L28.5 14C28.78 14 29 14.22 29 14.5L29 14.5ZM28 39.5C28 39.77 27.78 40 27.5 40L26.5 40C26.22 40 26 39.77 26 39.5L26 39.5C26 39.22 26.22 39 26.5 39L27.5 39C27.78 39 28 39.22 28 39.5L28 39.5Z" />
</svg>