<svg xmlns="http://www.w3.org/2000/svg" viewBox="0 0 55 55" width="55" height="55">
	<style>
		tspan { white-space:pre }
		.shp0 { fill: #666d89 } 
	</style>
	<path id="star" class="shp0" d="M43.88 22.56C43.6 21.76 42.89 21.17 42.04 21.05L33.71 19.81L30.09 12.29C29.71 11.51 28.9 11 28 11C27.1 11 26.29 11.51 25.91 12.29L22.29 19.81L13.96 21.05C13.11 21.17 12.4 21.76 12.12 22.56C11.84 23.36 12.05 24.24 12.66 24.84L18.76 30.93L17.34 39.39C17.2 40.24 17.57 41.09 18.29 41.59C18.69 41.86 19.16 42 19.62 42C20.01 42 20.39 41.91 20.74 41.72L28 37.81L35.26 41.72C35.61 41.91 35.99 42 36.38 42C36.84 42 37.31 41.86 37.71 41.59C38.43 41.09 38.8 40.24 38.66 39.39L37.24 30.93L43.34 24.84C43.95 24.24 44.16 23.36 43.88 22.56ZM35.59 29.36C35.08 29.87 34.84 30.59 34.96 31.3L36.38 39.75L29.12 35.84C28.77 35.65 28.38 35.56 28 35.56C27.62 35.56 27.23 35.65 26.88 35.84L19.62 39.75L21.04 31.3C21.16 30.59 20.92 29.87 20.41 29.36L14.31 23.27L22.64 22.03C23.4 21.92 24.05 21.44 24.38 20.76L28 13.25L31.62 20.76C31.95 21.44 32.6 21.92 33.36 22.03L41.69 23.27L35.59 29.36Z" />
</svg>